<svg width="390" height="390" viewBox="0 0 390 390" fill="none" xmlns="http://www.w3.org/2000/svg">
<circle cx="1.5" cy="1.5" r="1.5" fill="white" fill-opacity="0.4"/>
<circle cx="44.5" cy="1.5" r="1.5" fill="white" fill-opacity="0.4"/>
<circle cx="87.5" cy="1.5" r="1.5" fill="white" fill-opacity="0.4"/>
<circle cx="130.5" cy="1.5" r="1.5" fill="white" fill-opacity="0.4"/>
<circle cx="173.5" cy="1.5" r="1.5" fill="white" fill-opacity="0.4"/>
<circle cx="216.5" cy="1.5" r="1.5" fill="white" fill-opacity="0.4"/>
<circle cx="259.5" cy="1.5" r="1.5" fill="white" fill-opacity="0.4"/>
<circle cx="302.5" cy="1.5" r="1.5" fill="white" fill-opacity="0.4"/>
<circle cx="345.5" cy="1.5" r="1.5" fill="white" fill-opacity="0.4"/>
<circle cx="388.5" cy="1.5" r="1.5" fill="white" fill-opacity="0.4"/>
<circle cx="1.5" cy="44.5" r="1.5" fill="white" fill-opacity="0.4"/>
<circle cx="44.5" cy="44.5" r="1.5" fill="white" fill-opacity="0.4"/>
<circle cx="87.5" cy="44.5" r="1.5" fill="white" fill-opacity="0.4"/>
<circle cx="130.5" cy="44.5" r="1.5" fill="white" fill-opacity="0.4"/>
<circle cx="173.5" cy="44.5" r="1.5" fill="white" fill-opacity="0.4"/>
<circle cx="216.5" cy="44.5" r="1.5" fill="white" fill-opacity="0.4"/>
<circle cx="259.5" cy="44.5" r="1.5" fill="white" fill-opacity="0.4"/>
<circle cx="302.5" cy="44.5" r="1.5" fill="white" fill-opacity="0.4"/>
<circle cx="345.5" cy="44.5" r="1.5" fill="white" fill-opacity="0.4"/>
<circle cx="388.5" cy="44.5" r="1.5" fill="white" fill-opacity="0.4"/>
<circle cx="1.5" cy="87.5" r="1.5" fill="white" fill-opacity="0.4"/>
<circle cx="44.5" cy="87.5" r="1.5" fill="white" fill-opacity="0.4"/>
<circle cx="87.5" cy="87.5" r="1.5" fill="white" fill-opacity="0.4"/>
<circle cx="130.5" cy="87.5" r="1.5" fill="white" fill-opacity="0.4"/>
<circle cx="173.5" cy="87.5" r="1.5" fill="white" fill-opacity="0.4"/>
<circle cx="216.5" cy="87.5" r="1.5" fill="white" fill-opacity="0.4"/>
<circle cx="259.5" cy="87.5" r="1.5" fill="white" fill-opacity="0.4"/>
<circle cx="302.5" cy="87.5" r="1.5" fill="white" fill-opacity="0.4"/>
<circle cx="345.5" cy="87.5" r="1.5" fill="white" fill-opacity="0.4"/>
<circle cx="388.5" cy="87.5" r="1.5" fill="white" fill-opacity="0.4"/>
<circle cx="1.5" cy="130.5" r="1.5" fill="white" fill-opacity="0.4"/>
<circle cx="44.5" cy="130.5" r="1.5" fill="white" fill-opacity="0.4"/>
<circle cx="87.5" cy="130.5" r="1.5" fill="white" fill-opacity="0.4"/>
<circle cx="130.5" cy="130.5" r="1.5" fill="white" fill-opacity="0.4"/>
<circle cx="173.5" cy="130.5" r="1.5" fill="white" fill-opacity="0.4"/>
<circle cx="216.5" cy="130.5" r="1.5" fill="white" fill-opacity="0.4"/>
<circle cx="259.5" cy="130.5" r="1.5" fill="white" fill-opacity="0.4"/>
<circle cx="302.5" cy="130.5" r="1.5" fill="white" fill-opacity="0.4"/>
<circle cx="345.5" cy="130.5" r="1.5" fill="white" fill-opacity="0.4"/>
<circle cx="388.5" cy="130.5" r="1.5" fill="white" fill-opacity="0.4"/>
<circle cx="1.5" cy="173.5" r="1.5" fill="white" fill-opacity="0.4"/>
<circle cx="44.5" cy="173.5" r="1.5" fill="white" fill-opacity="0.4"/>
<circle cx="87.5" cy="173.5" r="1.5" fill="white" fill-opacity="0.4"/>
<circle cx="130.5" cy="173.5" r="1.5" fill="white" fill-opacity="0.4"/>
<circle cx="173.5" cy="173.5" r="1.5" fill="white" fill-opacity="0.4"/>
<circle cx="216.5" cy="173.5" r="1.5" fill="white" fill-opacity="0.4"/>
<circle cx="259.5" cy="173.5" r="1.5" fill="white" fill-opacity="0.4"/>
<circle cx="302.5" cy="173.5" r="1.5" fill="white" fill-opacity="0.4"/>
<circle cx="345.5" cy="173.5" r="1.5" fill="white" fill-opacity="0.4"/>
<circle cx="388.5" cy="173.5" r="1.5" fill="white" fill-opacity="0.4"/>
<circle cx="1.5" cy="216.5" r="1.5" fill="white" fill-opacity="0.4"/>
<circle cx="44.5" cy="216.5" r="1.5" fill="white" fill-opacity="0.4"/>
<circle cx="87.5" cy="216.5" r="1.5" fill="white" fill-opacity="0.4"/>
<circle cx="130.5" cy="216.5" r="1.5" fill="white" fill-opacity="0.4"/>
<circle cx="173.5" cy="216.5" r="1.5" fill="white" fill-opacity="0.4"/>
<circle cx="216.5" cy="216.5" r="1.5" fill="white" fill-opacity="0.4"/>
<circle cx="259.5" cy="216.5" r="1.5" fill="white" fill-opacity="0.4"/>
<circle cx="302.5" cy="216.5" r="1.5" fill="white" fill-opacity="0.4"/>
<circle cx="345.5" cy="216.5" r="1.5" fill="white" fill-opacity="0.4"/>
<circle cx="388.5" cy="216.5" r="1.5" fill="white" fill-opacity="0.4"/>
<circle cx="1.5" cy="259.5" r="1.5" fill="white" fill-opacity="0.4"/>
<circle cx="44.5" cy="259.5" r="1.5" fill="white" fill-opacity="0.4"/>
<circle cx="87.5" cy="259.5" r="1.5" fill="white" fill-opacity="0.4"/>
<circle cx="130.5" cy="259.5" r="1.5" fill="white" fill-opacity="0.4"/>
<circle cx="173.5" cy="259.5" r="1.5" fill="white" fill-opacity="0.4"/>
<circle cx="216.5" cy="259.5" r="1.5" fill="white" fill-opacity="0.4"/>
<circle cx="259.5" cy="259.5" r="1.5" fill="white" fill-opacity="0.4"/>
<circle cx="302.5" cy="259.5" r="1.5" fill="white" fill-opacity="0.4"/>
<circle cx="345.5" cy="259.5" r="1.5" fill="white" fill-opacity="0.4"/>
<circle cx="388.5" cy="259.5" r="1.5" fill="white" fill-opacity="0.4"/>
<circle cx="1.5" cy="302.5" r="1.5" fill="white" fill-opacity="0.4"/>
<circle cx="44.5" cy="302.5" r="1.5" fill="white" fill-opacity="0.4"/>
<circle cx="87.5" cy="302.5" r="1.5" fill="white" fill-opacity="0.4"/>
<circle cx="130.5" cy="302.5" r="1.5" fill="white" fill-opacity="0.4"/>
<circle cx="173.5" cy="302.5" r="1.5" fill="white" fill-opacity="0.4"/>
<circle cx="216.5" cy="302.5" r="1.5" fill="white" fill-opacity="0.4"/>
<circle cx="259.5" cy="302.5" r="1.5" fill="white" fill-opacity="0.4"/>
<circle cx="302.5" cy="302.5" r="1.5" fill="white" fill-opacity="0.4"/>
<circle cx="345.5" cy="302.5" r="1.5" fill="white" fill-opacity="0.4"/>
<circle cx="388.5" cy="302.5" r="1.5" fill="white" fill-opacity="0.4"/>
<circle cx="1.5" cy="345.5" r="1.5" fill="white" fill-opacity="0.4"/>
<circle cx="44.5" cy="345.5" r="1.5" fill="white" fill-opacity="0.4"/>
<circle cx="87.5" cy="345.5" r="1.5" fill="white" fill-opacity="0.4"/>
<circle cx="130.5" cy="345.5" r="1.5" fill="white" fill-opacity="0.4"/>
<circle cx="173.5" cy="345.5" r="1.5" fill="white" fill-opacity="0.4"/>
<circle cx="216.5" cy="345.5" r="1.5" fill="white" fill-opacity="0.4"/>
<circle cx="259.5" cy="345.5" r="1.5" fill="white" fill-opacity="0.4"/>
<circle cx="302.5" cy="345.5" r="1.5" fill="white" fill-opacity="0.4"/>
<circle cx="345.5" cy="345.5" r="1.5" fill="white" fill-opacity="0.4"/>
<circle cx="388.5" cy="345.5" r="1.5" fill="white" fill-opacity="0.4"/>
<circle cx="1.5" cy="388.5" r="1.5" fill="white" fill-opacity="0.4"/>
<circle cx="44.5" cy="388.5" r="1.5" fill="white" fill-opacity="0.4"/>
<circle cx="87.5" cy="388.5" r="1.5" fill="white" fill-opacity="0.4"/>
<circle cx="130.5" cy="388.5" r="1.5" fill="white" fill-opacity="0.4"/>
<circle cx="173.5" cy="388.5" r="1.5" fill="white" fill-opacity="0.4"/>
<circle cx="216.5" cy="388.5" r="1.5" fill="white" fill-opacity="0.4"/>
<circle cx="259.5" cy="388.5" r="1.5" fill="white" fill-opacity="0.4"/>
<circle cx="302.5" cy="388.5" r="1.5" fill="white" fill-opacity="0.4"/>
<circle cx="345.5" cy="388.5" r="1.5" fill="white" fill-opacity="0.4"/>
<circle cx="388.5" cy="388.5" r="1.5" fill="white" fill-opacity="0.4"/>
</svg>
